<mxfile host="app.diagrams.net" agent="Mozilla/5.0 (X11; Linux x86_64; rv:131.0) Gecko/20100101 Firefox/131.0" version="24.8.4">
  <diagram name="Page-1" id="XrNcn1Ofe2OYHv2nxhhu">
    <mxGraphModel dx="13710" dy="5815" grid="1" gridSize="10" guides="1" tooltips="1" connect="1" arrows="1" fold="1" page="1" pageScale="1" pageWidth="850" pageHeight="1100" math="0" shadow="0">
      <root>
        <mxCell id="0" />
        <mxCell id="1" parent="0" />
        <mxCell id="RXwMs78SPBcH-9EFCCba-20" value="" style="group" vertex="1" connectable="0" parent="1">
          <mxGeometry x="-6430" y="-1770" width="4432" height="2230" as="geometry" />
        </mxCell>
        <mxCell id="RXwMs78SPBcH-9EFCCba-21" value="" style="rounded=1;whiteSpace=wrap;html=1;" vertex="1" parent="RXwMs78SPBcH-9EFCCba-20">
          <mxGeometry width="4432" height="2230" as="geometry" />
        </mxCell>
        <mxCell id="RXwMs78SPBcH-9EFCCba-22" value="&lt;font style=&quot;font-size: 36px;&quot;&gt;dk.lyngby&lt;/font&gt;" style="text;html=1;align=center;verticalAlign=middle;whiteSpace=wrap;rounded=0;" vertex="1" parent="RXwMs78SPBcH-9EFCCba-20">
          <mxGeometry x="1906.7906976744184" y="71.93548387096776" width="618.4186046511627" height="215.80645161290326" as="geometry" />
        </mxCell>
        <mxCell id="RXwMs78SPBcH-9EFCCba-143" style="edgeStyle=orthogonalEdgeStyle;rounded=0;orthogonalLoop=1;jettySize=auto;html=1;" edge="1" parent="RXwMs78SPBcH-9EFCCba-20" source="RXwMs78SPBcH-9EFCCba-21" target="RXwMs78SPBcH-9EFCCba-21">
          <mxGeometry relative="1" as="geometry" />
        </mxCell>
        <mxCell id="RXwMs78SPBcH-9EFCCba-27" value="" style="group" vertex="1" connectable="0" parent="RXwMs78SPBcH-9EFCCba-20">
          <mxGeometry x="613.5" y="444" width="470" height="360" as="geometry" />
        </mxCell>
        <mxCell id="RXwMs78SPBcH-9EFCCba-28" value="" style="rounded=1;whiteSpace=wrap;html=1;" vertex="1" parent="RXwMs78SPBcH-9EFCCba-27">
          <mxGeometry width="469.99999999999994" height="360" as="geometry" />
        </mxCell>
        <mxCell id="RXwMs78SPBcH-9EFCCba-29" value="&lt;font style=&quot;font-size: 24px;&quot;&gt;dto&lt;/font&gt;" style="text;html=1;align=center;verticalAlign=middle;whiteSpace=wrap;rounded=0;" vertex="1" parent="RXwMs78SPBcH-9EFCCba-27">
          <mxGeometry x="202.2093023255814" y="11.61290322580645" width="65.5813953488372" height="34.83870967741936" as="geometry" />
        </mxCell>
        <mxCell id="RXwMs78SPBcH-9EFCCba-26" value="&lt;p style=&quot;margin:0px;margin-top:4px;text-align:center;&quot;&gt;&lt;b&gt;UserDTO&lt;/b&gt;&lt;/p&gt;&lt;hr size=&quot;1&quot;/&gt;&lt;p style=&quot;margin:0 0 0 4px;line-height:1.6;&quot;&gt;- roles: Set&amp;lt;String&amp;gt;&lt;br/&gt;- username: String&lt;/p&gt;&lt;hr size=&quot;1&quot;/&gt;&lt;p style=&quot;margin:0 0 0 4px;line-height:1.6;&quot;&gt;+ toUserDTOList(List&amp;lt;User&amp;gt;): List&amp;lt;UserDTO&amp;gt;&lt;br/&gt;+ toString(): String&lt;br/&gt;+ getUsername(): String&lt;br/&gt;+ getRoles(): Set&amp;lt;String&amp;gt;&lt;/p&gt;" style="verticalAlign=top;align=left;overflow=fill;fontSize=14;fontFamily=Helvetica;html=1;rounded=0;shadow=0;comic=0;labelBackgroundColor=none;strokeWidth=1;" vertex="1" parent="RXwMs78SPBcH-9EFCCba-27">
          <mxGeometry x="64.5" y="80" width="341" height="200" as="geometry" />
        </mxCell>
        <mxCell id="RXwMs78SPBcH-9EFCCba-30" value="" style="group" vertex="1" connectable="0" parent="RXwMs78SPBcH-9EFCCba-20">
          <mxGeometry x="2752.5" y="394" width="1236" height="630" as="geometry" />
        </mxCell>
        <mxCell id="RXwMs78SPBcH-9EFCCba-31" value="" style="rounded=1;whiteSpace=wrap;html=1;" vertex="1" parent="RXwMs78SPBcH-9EFCCba-30">
          <mxGeometry width="1236" height="630" as="geometry" />
        </mxCell>
        <mxCell id="RXwMs78SPBcH-9EFCCba-32" value="&lt;font style=&quot;font-size: 24px;&quot;&gt;config&lt;/font&gt;" style="text;html=1;align=center;verticalAlign=middle;whiteSpace=wrap;rounded=0;" vertex="1" parent="RXwMs78SPBcH-9EFCCba-30">
          <mxGeometry x="531.7674418604652" y="20.322580645161292" width="172.46511627906978" height="60.96774193548388" as="geometry" />
        </mxCell>
        <mxCell id="RXwMs78SPBcH-9EFCCba-33" value="&lt;p style=&quot;margin:0px;margin-top:4px;text-align:center;&quot;&gt;&lt;b&gt;ApplicationConfig&lt;/b&gt;&lt;/p&gt;&lt;hr size=&quot;1&quot;/&gt;&lt;p style=&quot;margin:0 0 0 4px;line-height:1.6;&quot;&gt;- LOGGER: Logger&lt;br/&gt;- ACCESS_MANAGER_HANDLER: AccessManagerController&lt;/p&gt;&lt;hr size=&quot;1&quot;/&gt;&lt;p style=&quot;margin:0 0 0 4px;line-height:1.6;&quot;&gt;+ stopServer(Javalin): void&lt;br/&gt;+ startServer(Javalin, int): void&lt;br/&gt;+ getProperty(String): String&lt;br/&gt;- configuration(JavalinConfig): void&lt;/p&gt;" style="verticalAlign=top;align=left;overflow=fill;fontSize=14;fontFamily=Helvetica;html=1;rounded=0;shadow=0;comic=0;labelBackgroundColor=none;strokeWidth=1;" vertex="1" parent="RXwMs78SPBcH-9EFCCba-30">
          <mxGeometry x="130" y="200" width="429" height="200" as="geometry" />
        </mxCell>
        <mxCell id="RXwMs78SPBcH-9EFCCba-34" value="&lt;p style=&quot;margin:0px;margin-top:4px;text-align:center;&quot;&gt;&lt;b&gt;HibernateConfig&lt;/b&gt;&lt;/p&gt;&lt;hr size=&quot;1&quot;/&gt;&lt;p style=&quot;margin:0 0 0 4px;line-height:1.6;&quot;&gt;- entityManagerFactory: EntityManagerFactory&lt;br/&gt;- isTest: Boolean&lt;/p&gt;&lt;hr size=&quot;1&quot;/&gt;&lt;p style=&quot;margin:0 0 0 4px;line-height:1.6;&quot;&gt;+ setTest(Boolean): void&lt;br/&gt;- getEntityManagerFactory(Configuration, Properties): EntityManagerFactory&lt;br/&gt;+ getEntityManagerFactory(): EntityManagerFactory&lt;br/&gt;- buildEntityFactoryConfigTest(): EntityManagerFactory&lt;br/&gt;- buildEntityFactoryConfigDev(): EntityManagerFactory&lt;br/&gt;- getEntityManagerFactoryConfigDev(): EntityManagerFactory&lt;br/&gt;- getEntityManagerFactoryConfigTest(): EntityManagerFactory&lt;br/&gt;+ getTest(): Boolean&lt;br/&gt;- getAnnotationConfiguration(Configuration): void&lt;/p&gt;" style="verticalAlign=top;align=left;overflow=fill;fontSize=14;fontFamily=Helvetica;html=1;rounded=0;shadow=0;comic=0;labelBackgroundColor=none;strokeWidth=1;" vertex="1" parent="RXwMs78SPBcH-9EFCCba-30">
          <mxGeometry x="599" y="200" width="556" height="335" as="geometry" />
        </mxCell>
        <mxCell id="RXwMs78SPBcH-9EFCCba-112" value="" style="group" vertex="1" connectable="0" parent="RXwMs78SPBcH-9EFCCba-20">
          <mxGeometry x="443.5" y="1219" width="735" height="520" as="geometry" />
        </mxCell>
        <mxCell id="RXwMs78SPBcH-9EFCCba-113" value="" style="rounded=1;whiteSpace=wrap;html=1;" vertex="1" parent="RXwMs78SPBcH-9EFCCba-112">
          <mxGeometry width="735" height="520" as="geometry" />
        </mxCell>
        <mxCell id="RXwMs78SPBcH-9EFCCba-114" value="&lt;div style=&quot;font-size: 24px;&quot;&gt;&lt;font style=&quot;font-size: 24px;&quot;&gt;exception&lt;/font&gt;&lt;/div&gt;" style="text;html=1;align=center;verticalAlign=middle;whiteSpace=wrap;rounded=0;" vertex="1" parent="RXwMs78SPBcH-9EFCCba-112">
          <mxGeometry x="316.22093023255815" y="16.774193548387096" width="102.55813953488372" height="50.322580645161295" as="geometry" />
        </mxCell>
        <mxCell id="RXwMs78SPBcH-9EFCCba-103" value="&lt;p style=&quot;margin:0px;margin-top:4px;text-align:center;&quot;&gt;&lt;b&gt;ApiException&lt;/b&gt;&lt;/p&gt;&lt;hr size=&quot;1&quot;/&gt;&lt;p style=&quot;margin:0 0 0 4px;line-height:1.6;&quot;&gt;- statusCode: int&lt;/p&gt;&lt;hr size=&quot;1&quot;/&gt;&lt;p style=&quot;margin:0 0 0 4px;line-height:1.6;&quot;&gt;+ getStatusCode(): int&lt;/p&gt;" style="verticalAlign=top;align=left;overflow=fill;fontSize=14;fontFamily=Helvetica;html=1;rounded=0;shadow=0;comic=0;labelBackgroundColor=none;strokeWidth=1;" vertex="1" parent="RXwMs78SPBcH-9EFCCba-112">
          <mxGeometry x="500.5" y="366" width="179" height="99" as="geometry" />
        </mxCell>
        <mxCell id="RXwMs78SPBcH-9EFCCba-104" value="&lt;p style=&quot;margin:0px;margin-top:4px;text-align:center;&quot;&gt;&lt;b&gt;AuthorizationException&lt;/b&gt;&lt;/p&gt;&lt;hr size=&quot;1&quot;/&gt;&lt;p style=&quot;margin:0 0 0 4px;line-height:1.6;&quot;&gt;- statusCode: int&lt;/p&gt;&lt;hr size=&quot;1&quot;/&gt;&lt;p style=&quot;margin:0 0 0 4px;line-height:1.6;&quot;&gt;+ getStatusCode(): int&lt;/p&gt;" style="verticalAlign=top;align=left;overflow=fill;fontSize=14;fontFamily=Helvetica;html=1;rounded=0;shadow=0;comic=0;labelBackgroundColor=none;strokeWidth=1;" vertex="1" parent="RXwMs78SPBcH-9EFCCba-112">
          <mxGeometry x="216.5" y="153.5" width="261" height="99" as="geometry" />
        </mxCell>
        <mxCell id="RXwMs78SPBcH-9EFCCba-105" value="&lt;p style=&quot;margin:0px;margin-top:4px;text-align:center;&quot;&gt;&lt;b&gt;ExceptionHandler&lt;/b&gt;&lt;/p&gt;&lt;hr size=&quot;1&quot;/&gt;&lt;p style=&quot;margin:0 0 0 4px;line-height:1.6;&quot;&gt;+ exceptionHandler(Exception, Context): void&lt;br/&gt;+ apiExceptionHandler(ApiException, Context): void&lt;/p&gt;" style="verticalAlign=top;align=left;overflow=fill;fontSize=14;fontFamily=Helvetica;html=1;rounded=0;shadow=0;comic=0;labelBackgroundColor=none;strokeWidth=1;" vertex="1" parent="RXwMs78SPBcH-9EFCCba-112">
          <mxGeometry x="10.5" y="367" width="385" height="98" as="geometry" />
        </mxCell>
        <mxCell id="RXwMs78SPBcH-9EFCCba-106" value="&lt;p style=&quot;margin:0px;margin-top:4px;text-align:center;&quot;&gt;&lt;b&gt;ExpiredTokenException&lt;/b&gt;&lt;/p&gt;&lt;hr size=&quot;1&quot;/&gt;&lt;p style=&quot;margin:0 0 0 4px;line-height:1.6;&quot;&gt;+ getStatusCode(): int&lt;/p&gt;" style="verticalAlign=top;align=left;overflow=fill;fontSize=14;fontFamily=Helvetica;html=1;rounded=0;shadow=0;comic=0;labelBackgroundColor=none;strokeWidth=1;" vertex="1" parent="RXwMs78SPBcH-9EFCCba-112">
          <mxGeometry x="216.5" y="276" width="261" height="69" as="geometry" />
        </mxCell>
        <mxCell id="RXwMs78SPBcH-9EFCCba-107" value="&lt;p style=&quot;margin:0px;margin-top:4px;text-align:center;&quot;&gt;&lt;i&gt;&amp;lt;&amp;lt;record&amp;gt;&amp;gt;&lt;/i&gt;&lt;br/&gt;&lt;b&gt;Message&lt;/b&gt;&lt;/p&gt;&lt;hr size=&quot;1&quot;/&gt;&lt;p style=&quot;margin:0 0 0 4px;line-height:1.6;&quot;&gt;- message: String&lt;br/&gt;- status: int&lt;/p&gt;&lt;hr size=&quot;1&quot;/&gt;&lt;p style=&quot;margin:0 0 0 4px;line-height:1.6;&quot;&gt;+ message(): String&lt;br/&gt;+ status(): int&lt;/p&gt;" style="verticalAlign=top;align=left;overflow=fill;fontSize=14;fontFamily=Helvetica;html=1;rounded=0;shadow=0;comic=0;labelBackgroundColor=none;strokeWidth=1;" vertex="1" parent="RXwMs78SPBcH-9EFCCba-112">
          <mxGeometry x="38.5" y="130" width="160" height="146" as="geometry" />
        </mxCell>
        <mxCell id="RXwMs78SPBcH-9EFCCba-108" value="&lt;p style=&quot;margin:0px;margin-top:4px;text-align:center;&quot;&gt;&lt;i&gt;&amp;lt;&amp;lt;record&amp;gt;&amp;gt;&lt;/i&gt;&lt;br/&gt;&lt;b&gt;ValidationMessage&lt;/b&gt;&lt;/p&gt;&lt;hr size=&quot;1&quot;/&gt;&lt;p style=&quot;margin:0 0 0 4px;line-height:1.6;&quot;&gt;- message: String&lt;br/&gt;- args: Map&amp;lt;String, Object&amp;gt;&lt;br/&gt;- value: Object&lt;/p&gt;&lt;hr size=&quot;1&quot;/&gt;&lt;p style=&quot;margin:0 0 0 4px;line-height:1.6;&quot;&gt;+ value(): Object&lt;br/&gt;+ args(): Map&amp;lt;String, Object&amp;gt;&lt;br/&gt;+ message(): String&lt;/p&gt;" style="verticalAlign=top;align=left;overflow=fill;fontSize=14;fontFamily=Helvetica;html=1;rounded=0;shadow=0;comic=0;labelBackgroundColor=none;strokeWidth=1;" vertex="1" parent="RXwMs78SPBcH-9EFCCba-112">
          <mxGeometry x="490.5" y="130" width="234" height="200" as="geometry" />
        </mxCell>
        <mxCell id="RXwMs78SPBcH-9EFCCba-109" value="" style="html=1;rounded=1;edgeStyle=orthogonalEdgeStyle;dashed=1;startArrow=none;endArrow=openThin;endSize=12;strokeColor=#595959;exitX=0.500;exitY=0.000;exitDx=0;exitDy=0;entryX=0.500;entryY=1.000;entryDx=0;entryDy=0;" edge="1" parent="RXwMs78SPBcH-9EFCCba-112" source="RXwMs78SPBcH-9EFCCba-105" target="RXwMs78SPBcH-9EFCCba-107">
          <mxGeometry width="50" height="50" relative="1" as="geometry">
            <Array as="points">
              <mxPoint x="199.5" y="343" />
              <mxPoint x="119.5" y="343" />
            </Array>
          </mxGeometry>
        </mxCell>
        <mxCell id="RXwMs78SPBcH-9EFCCba-111" value="«create»" style="edgeLabel;html=1;align=center;verticalAlign=middle;resizable=0;points=[];" vertex="1" connectable="0" parent="RXwMs78SPBcH-9EFCCba-109">
          <mxGeometry x="-0.2228" y="-3" relative="1" as="geometry">
            <mxPoint as="offset" />
          </mxGeometry>
        </mxCell>
        <mxCell id="RXwMs78SPBcH-9EFCCba-115" value="" style="group" vertex="1" connectable="0" parent="RXwMs78SPBcH-9EFCCba-20">
          <mxGeometry x="1793.5" y="404" width="910" height="640" as="geometry" />
        </mxCell>
        <mxCell id="RXwMs78SPBcH-9EFCCba-116" value="" style="rounded=1;whiteSpace=wrap;html=1;" vertex="1" parent="RXwMs78SPBcH-9EFCCba-115">
          <mxGeometry width="910" height="640" as="geometry" />
        </mxCell>
        <mxCell id="RXwMs78SPBcH-9EFCCba-117" value="&lt;font style=&quot;font-size: 24px;&quot;&gt;dao&lt;/font&gt;" style="text;html=1;align=center;verticalAlign=middle;whiteSpace=wrap;rounded=0;" vertex="1" parent="RXwMs78SPBcH-9EFCCba-115">
          <mxGeometry x="391.51162790697674" y="20.645161290322577" width="126.97674418604652" height="61.93548387096774" as="geometry" />
        </mxCell>
        <mxCell id="RXwMs78SPBcH-9EFCCba-137" value="" style="group" vertex="1" connectable="0" parent="RXwMs78SPBcH-9EFCCba-115">
          <mxGeometry x="375" y="100" width="460" height="500" as="geometry" />
        </mxCell>
        <mxCell id="RXwMs78SPBcH-9EFCCba-138" value="" style="rounded=1;whiteSpace=wrap;html=1;" vertex="1" parent="RXwMs78SPBcH-9EFCCba-137">
          <mxGeometry width="460" height="500" as="geometry" />
        </mxCell>
        <mxCell id="RXwMs78SPBcH-9EFCCba-139" value="&lt;font style=&quot;font-size: 24px;&quot;&gt;impl&lt;/font&gt;" style="text;html=1;align=center;verticalAlign=middle;whiteSpace=wrap;rounded=0;" vertex="1" parent="RXwMs78SPBcH-9EFCCba-137">
          <mxGeometry x="197.90697674418607" y="16.129032258064516" width="64.18604651162791" height="48.38709677419355" as="geometry" />
        </mxCell>
        <mxCell id="RXwMs78SPBcH-9EFCCba-38" value="&lt;p style=&quot;margin:0px;margin-top:4px;text-align:center;&quot;&gt;&lt;b&gt;UserDao&lt;/b&gt;&lt;/p&gt;&lt;hr size=&quot;1&quot;/&gt;&lt;p style=&quot;margin:0 0 0 4px;line-height:1.6;&quot;&gt;- emf: EntityManagerFactory&lt;br/&gt;- instance: UserDao&lt;/p&gt;&lt;hr size=&quot;1&quot;/&gt;&lt;p style=&quot;margin:0 0 0 4px;line-height:1.6;&quot;&gt;+ create(User): User&lt;br/&gt;+ getVerifiedUser(String, String): User&lt;br/&gt;+ readAll(): List&amp;lt;User&amp;gt;&lt;br/&gt;+ validatePrimaryKey(String): boolean&lt;br/&gt;+ getInstance(EntityManagerFactory): UserDao&lt;br/&gt;+ registerUser(String, String, String): User&lt;br/&gt;+ update(String, User): User&lt;br/&gt;+ createRole(String): Role&lt;br/&gt;+ delete(String): void&lt;br/&gt;+ read(String): User&lt;/p&gt;" style="verticalAlign=top;align=left;overflow=fill;fontSize=14;fontFamily=Helvetica;html=1;rounded=0;shadow=0;comic=0;labelBackgroundColor=none;strokeWidth=1;" vertex="1" parent="RXwMs78SPBcH-9EFCCba-137">
          <mxGeometry x="53" y="110" width="354" height="362" as="geometry" />
        </mxCell>
        <mxCell id="RXwMs78SPBcH-9EFCCba-39" value="&lt;p style=&quot;margin:0px;margin-top:4px;text-align:center;&quot;&gt;&lt;i&gt;&amp;lt;&amp;lt;interface&amp;gt;&amp;gt;&lt;/i&gt;&lt;br/&gt;&lt;b&gt;IDao&lt;T, D&gt;&lt;/b&gt;&lt;/p&gt;&lt;hr size=&quot;1&quot;/&gt;&lt;p style=&quot;margin:0 0 0 4px;line-height:1.6;&quot;&gt;+ delete(D): void&lt;br/&gt;+ update(D, T): T&lt;br/&gt;+ read(D): T&lt;br/&gt;+ readAll(): List&amp;lt;T&amp;gt;&lt;br/&gt;+ create(T): T&lt;br/&gt;+ validatePrimaryKey(D): boolean&lt;/p&gt;" style="verticalAlign=top;align=left;overflow=fill;fontSize=14;fontFamily=Helvetica;html=1;rounded=0;shadow=0;comic=0;labelBackgroundColor=none;strokeWidth=1;" vertex="1" parent="RXwMs78SPBcH-9EFCCba-115">
          <mxGeometry x="75" y="200" width="260" height="199" as="geometry" />
        </mxCell>
        <mxCell id="RXwMs78SPBcH-9EFCCba-118" value="" style="group" vertex="1" connectable="0" parent="RXwMs78SPBcH-9EFCCba-20">
          <mxGeometry x="1163.5" y="384" width="570" height="520" as="geometry" />
        </mxCell>
        <mxCell id="RXwMs78SPBcH-9EFCCba-119" value="" style="rounded=1;whiteSpace=wrap;html=1;" vertex="1" parent="RXwMs78SPBcH-9EFCCba-118">
          <mxGeometry width="570" height="520" as="geometry" />
        </mxCell>
        <mxCell id="RXwMs78SPBcH-9EFCCba-120" value="&lt;div style=&quot;font-size: 24px;&quot;&gt;&lt;font style=&quot;font-size: 24px;&quot;&gt;routes&lt;/font&gt;&lt;/div&gt;" style="text;html=1;align=center;verticalAlign=middle;whiteSpace=wrap;rounded=0;" vertex="1" parent="RXwMs78SPBcH-9EFCCba-118">
          <mxGeometry x="245.2325581395349" y="16.774193548387096" width="79.53488372093022" height="50.322580645161295" as="geometry" />
        </mxCell>
        <mxCell id="RXwMs78SPBcH-9EFCCba-63" value="&lt;p style=&quot;margin:0px;margin-top:4px;text-align:center;&quot;&gt;&lt;b&gt;Routes&lt;/b&gt;&lt;/p&gt;&lt;hr size=&quot;1&quot;/&gt;&lt;p style=&quot;margin:0 0 0 4px;line-height:1.6;&quot;&gt;- userRoutes: UserRoutes&lt;br/&gt;- exceptionController: ExceptionController&lt;br/&gt;- count: int&lt;br/&gt;- LOGGER: Logger&lt;/p&gt;&lt;hr size=&quot;1&quot;/&gt;&lt;p style=&quot;margin:0 0 0 4px;line-height:1.6;&quot;&gt;- requestInfoHandler(Context): void&lt;br/&gt;+ getRoutes(Javalin): EndpointGroup&lt;/p&gt;" style="verticalAlign=top;align=left;overflow=fill;fontSize=14;fontFamily=Helvetica;html=1;rounded=0;shadow=0;comic=0;labelBackgroundColor=none;strokeWidth=1;" vertex="1" parent="RXwMs78SPBcH-9EFCCba-118">
          <mxGeometry x="130" y="286" width="324" height="200" as="geometry" />
        </mxCell>
        <mxCell id="RXwMs78SPBcH-9EFCCba-64" value="&lt;p style=&quot;margin:0px;margin-top:4px;text-align:center;&quot;&gt;&lt;b&gt;UserRoutes&lt;/b&gt;&lt;/p&gt;&lt;hr size=&quot;1&quot;/&gt;&lt;p style=&quot;margin:0 0 0 4px;line-height:1.6;&quot;&gt;- userController: UserController&lt;/p&gt;&lt;hr size=&quot;1&quot;/&gt;&lt;p style=&quot;margin:0 0 0 4px;line-height:1.6;&quot;&gt;# getRoutes(): EndpointGroup&lt;/p&gt;" style="verticalAlign=top;align=left;overflow=fill;fontSize=14;fontFamily=Helvetica;html=1;rounded=0;shadow=0;comic=0;labelBackgroundColor=none;strokeWidth=1;" vertex="1" parent="RXwMs78SPBcH-9EFCCba-118">
          <mxGeometry x="146" y="100" width="252" height="99" as="geometry" />
        </mxCell>
        <mxCell id="RXwMs78SPBcH-9EFCCba-65" value="" style="html=1;rounded=1;edgeStyle=orthogonalEdgeStyle;dashed=0;startArrow=diamondThinstartSize=12;endArrow=openThin;endSize=12;strokeColor=#595959;exitX=0.750;exitY=0.000;exitDx=0;exitDy=0;entryX=0.750;entryY=1.000;entryDx=0;entryDy=0;" edge="1" parent="RXwMs78SPBcH-9EFCCba-118" source="RXwMs78SPBcH-9EFCCba-63" target="RXwMs78SPBcH-9EFCCba-64">
          <mxGeometry width="50" height="50" relative="1" as="geometry">
            <Array as="points">
              <mxPoint x="373" y="266" />
              <mxPoint x="335" y="266" />
            </Array>
          </mxGeometry>
        </mxCell>
        <mxCell id="RXwMs78SPBcH-9EFCCba-83" value="1 userRoutes" style="edgeLabel;html=1;align=center;verticalAlign=middle;resizable=0;points=[];" vertex="1" connectable="0" parent="RXwMs78SPBcH-9EFCCba-65">
          <mxGeometry x="0.7193" relative="1" as="geometry">
            <mxPoint as="offset" />
          </mxGeometry>
        </mxCell>
        <mxCell id="RXwMs78SPBcH-9EFCCba-84" value="1" style="edgeLabel;html=1;align=center;verticalAlign=middle;resizable=0;points=[];" vertex="1" connectable="0" parent="RXwMs78SPBcH-9EFCCba-65">
          <mxGeometry x="-0.8099" y="-1" relative="1" as="geometry">
            <mxPoint as="offset" />
          </mxGeometry>
        </mxCell>
        <mxCell id="RXwMs78SPBcH-9EFCCba-69" value="" style="html=1;rounded=1;edgeStyle=orthogonalEdgeStyle;dashed=1;startArrow=none;endArrow=openThin;endSize=12;strokeColor=#595959;exitX=0.250;exitY=0.000;exitDx=0;exitDy=0;entryX=0.250;entryY=1.000;entryDx=0;entryDy=0;" edge="1" parent="RXwMs78SPBcH-9EFCCba-118" source="RXwMs78SPBcH-9EFCCba-63" target="RXwMs78SPBcH-9EFCCba-64">
          <mxGeometry width="50" height="50" relative="1" as="geometry">
            <Array as="points">
              <mxPoint x="211" y="266" />
              <mxPoint x="209" y="266" />
            </Array>
          </mxGeometry>
        </mxCell>
        <mxCell id="RXwMs78SPBcH-9EFCCba-85" value="«create»" style="edgeLabel;html=1;align=center;verticalAlign=middle;resizable=0;points=[];" vertex="1" connectable="0" parent="RXwMs78SPBcH-9EFCCba-69">
          <mxGeometry x="-0.1842" y="-1" relative="1" as="geometry">
            <mxPoint y="8" as="offset" />
          </mxGeometry>
        </mxCell>
        <mxCell id="RXwMs78SPBcH-9EFCCba-121" value="" style="group" vertex="1" connectable="0" parent="RXwMs78SPBcH-9EFCCba-20">
          <mxGeometry x="1793.5" y="1093" width="1220" height="1020" as="geometry" />
        </mxCell>
        <mxCell id="RXwMs78SPBcH-9EFCCba-122" value="" style="rounded=1;whiteSpace=wrap;html=1;" vertex="1" parent="RXwMs78SPBcH-9EFCCba-121">
          <mxGeometry width="1220.0000000000002" height="1020" as="geometry" />
        </mxCell>
        <mxCell id="RXwMs78SPBcH-9EFCCba-123" value="&lt;font style=&quot;font-size: 24px;&quot;&gt;controller&lt;/font&gt;" style="text;html=1;align=center;verticalAlign=middle;whiteSpace=wrap;rounded=0;" vertex="1" parent="RXwMs78SPBcH-9EFCCba-121">
          <mxGeometry x="524.8837209302326" y="32.903225806451616" width="170.23255813953492" height="98.70967741935485" as="geometry" />
        </mxCell>
        <mxCell id="RXwMs78SPBcH-9EFCCba-130" value="" style="group" vertex="1" connectable="0" parent="RXwMs78SPBcH-9EFCCba-121">
          <mxGeometry x="440" y="131.61" width="730" height="840" as="geometry" />
        </mxCell>
        <mxCell id="RXwMs78SPBcH-9EFCCba-131" value="" style="rounded=1;whiteSpace=wrap;html=1;" vertex="1" parent="RXwMs78SPBcH-9EFCCba-130">
          <mxGeometry width="730" height="840" as="geometry" />
        </mxCell>
        <mxCell id="RXwMs78SPBcH-9EFCCba-132" value="&lt;font style=&quot;font-size: 24px;&quot;&gt;impl&lt;/font&gt;" style="text;html=1;align=center;verticalAlign=middle;whiteSpace=wrap;rounded=0;" vertex="1" parent="RXwMs78SPBcH-9EFCCba-130">
          <mxGeometry x="314.06976744186045" y="27.096774193548388" width="101.86046511627907" height="81.29032258064517" as="geometry" />
        </mxCell>
        <mxCell id="RXwMs78SPBcH-9EFCCba-37" value="&lt;p style=&quot;margin:0px;margin-top:4px;text-align:center;&quot;&gt;&lt;b&gt;UserController&lt;/b&gt;&lt;/p&gt;&lt;hr size=&quot;1&quot;/&gt;&lt;p style=&quot;margin:0 0 0 4px;line-height:1.6;&quot;&gt;- tokenFactory: TokenFactory&lt;br/&gt;- userDao: UserDao&lt;/p&gt;&lt;hr size=&quot;1&quot;/&gt;&lt;p style=&quot;margin:0 0 0 4px;line-height:1.6;&quot;&gt;- getToken(String, Set&amp;lt;String&amp;gt;): String&lt;br/&gt;- createResponse(String, String): String&lt;br/&gt;- getUserInfos(Context, boolean): String[]&lt;br/&gt;- getVerfiedOrRegisterUser(String, String, String, boolean): User&lt;br/&gt;+ register(Context): void&lt;br/&gt;+ login(Context): void&lt;/p&gt;" style="verticalAlign=top;align=left;overflow=fill;fontSize=14;fontFamily=Helvetica;html=1;rounded=0;shadow=0;comic=0;labelBackgroundColor=none;strokeWidth=1;" vertex="1" parent="RXwMs78SPBcH-9EFCCba-130">
          <mxGeometry x="115" y="108.38999999999999" width="473" height="254" as="geometry" />
        </mxCell>
        <mxCell id="RXwMs78SPBcH-9EFCCba-35" value="&lt;p style=&quot;margin:0px;margin-top:4px;text-align:center;&quot;&gt;&lt;b&gt;AccessManagerController&lt;/b&gt;&lt;/p&gt;&lt;hr size=&quot;1&quot;/&gt;&lt;p style=&quot;margin:0 0 0 4px;line-height:1.6;&quot;&gt;- TOKEN_FACTORY: TokenFactory&lt;/p&gt;&lt;hr size=&quot;1&quot;/&gt;&lt;p style=&quot;margin:0 0 0 4px;line-height:1.6;&quot;&gt;- getUserRole(Context): RouteRole[]&lt;br/&gt;+ accessManagerHandler(Handler, Context, Set&amp;lt;RouteRole&amp;gt;): void&lt;/p&gt;" style="verticalAlign=top;align=left;overflow=fill;fontSize=14;fontFamily=Helvetica;html=1;rounded=0;shadow=0;comic=0;labelBackgroundColor=none;strokeWidth=1;" vertex="1" parent="RXwMs78SPBcH-9EFCCba-130">
          <mxGeometry x="104" y="398.39" width="484" height="129" as="geometry" />
        </mxCell>
        <mxCell id="RXwMs78SPBcH-9EFCCba-36" value="&lt;p style=&quot;margin:0px;margin-top:4px;text-align:center;&quot;&gt;&lt;b&gt;ExceptionController&lt;/b&gt;&lt;/p&gt;&lt;hr size=&quot;1&quot;/&gt;&lt;p style=&quot;margin:0 0 0 4px;line-height:1.6;&quot;&gt;- LOGGER: Logger&lt;/p&gt;&lt;hr size=&quot;1&quot;/&gt;&lt;p style=&quot;margin:0 0 0 4px;line-height:1.6;&quot;&gt;+ exceptionHandlerNotAuthorized(AuthorizationException, Context): void&lt;br/&gt;+ exceptionHandlerTokenExpired(ExpiredTokenException, Context): void&lt;br/&gt;+ constraintViolationExceptionHandler(ConstraintViolationException, Context): void&lt;br/&gt;+ validationExceptionHandler(ValidationException, Context): void&lt;br/&gt;+ exceptionHandler(Exception, Context): void&lt;br/&gt;+ apiExceptionHandler(ApiException, Context): void&lt;/p&gt;" style="verticalAlign=top;align=left;overflow=fill;fontSize=14;fontFamily=Helvetica;html=1;rounded=0;shadow=0;comic=0;labelBackgroundColor=none;strokeWidth=1;" vertex="1" parent="RXwMs78SPBcH-9EFCCba-130">
          <mxGeometry x="100.5" y="558.39" width="529" height="227" as="geometry" />
        </mxCell>
        <mxCell id="RXwMs78SPBcH-9EFCCba-46" value="&lt;p style=&quot;margin:0px;margin-top:4px;text-align:center;&quot;&gt;&lt;i&gt;&amp;lt;&amp;lt;interface&amp;gt;&amp;gt;&lt;/i&gt;&lt;br/&gt;&lt;b&gt;IController&lt;T, D&gt;&lt;/b&gt;&lt;/p&gt;&lt;hr size=&quot;1&quot;/&gt;&lt;p style=&quot;margin:0 0 0 4px;line-height:1.6;&quot;&gt;+ validateEntity(Context): T&lt;br/&gt;+ update(Context): void&lt;br/&gt;+ readAll(Context): void&lt;br/&gt;+ delete(Context): void&lt;br/&gt;+ create(Context): void&lt;br/&gt;+ read(Context): void&lt;br/&gt;+ validatePrimaryKey(D): boolean&lt;/p&gt;" style="verticalAlign=top;align=left;overflow=fill;fontSize=14;fontFamily=Helvetica;html=1;rounded=0;shadow=0;comic=0;labelBackgroundColor=none;strokeWidth=1;" vertex="1" parent="RXwMs78SPBcH-9EFCCba-121">
          <mxGeometry x="110" y="240" width="260" height="226" as="geometry" />
        </mxCell>
        <mxCell id="RXwMs78SPBcH-9EFCCba-124" value="&amp;nbsp;" style="group" vertex="1" connectable="0" parent="RXwMs78SPBcH-9EFCCba-20">
          <mxGeometry x="1223.5" y="1064" width="530" height="830" as="geometry" />
        </mxCell>
        <mxCell id="RXwMs78SPBcH-9EFCCba-125" value="" style="rounded=1;whiteSpace=wrap;html=1;" vertex="1" parent="RXwMs78SPBcH-9EFCCba-124">
          <mxGeometry width="530" height="830" as="geometry" />
        </mxCell>
        <mxCell id="RXwMs78SPBcH-9EFCCba-126" value="&lt;font style=&quot;font-size: 24px;&quot;&gt;model&lt;/font&gt;" style="text;html=1;align=center;verticalAlign=middle;whiteSpace=wrap;rounded=0;" vertex="1" parent="RXwMs78SPBcH-9EFCCba-124">
          <mxGeometry x="228.0232558139535" y="26.7741935483871" width="73.95348837209302" height="80.32258064516131" as="geometry" />
        </mxCell>
        <mxCell id="RXwMs78SPBcH-9EFCCba-86" value="&lt;p style=&quot;margin:0px;margin-top:4px;text-align:center;&quot;&gt;&lt;b&gt;Role&lt;/b&gt;&lt;/p&gt;&lt;hr size=&quot;1&quot;/&gt;&lt;p style=&quot;margin:0 0 0 4px;line-height:1.6;&quot;&gt;- userList: List&amp;lt;User&amp;gt;&lt;br/&gt;- serialVersionUID: long&lt;br/&gt;- roleName: String&lt;/p&gt;&lt;hr size=&quot;1&quot;/&gt;&lt;p style=&quot;margin:0 0 0 4px;line-height:1.6;&quot;&gt;+ getRoleName(): String&lt;br/&gt;+ getUserList(): List&amp;lt;User&amp;gt;&lt;br/&gt;+ equals(Object): boolean&lt;br/&gt;+ hashCode(): int&lt;/p&gt;" style="verticalAlign=top;align=left;overflow=fill;fontSize=14;fontFamily=Helvetica;html=1;rounded=0;shadow=0;comic=0;labelBackgroundColor=none;strokeWidth=1;" vertex="1" parent="RXwMs78SPBcH-9EFCCba-124">
          <mxGeometry x="126.5" y="100" width="208" height="227" as="geometry" />
        </mxCell>
        <mxCell id="RXwMs78SPBcH-9EFCCba-87" value="&lt;p style=&quot;margin:0px;margin-top:4px;text-align:center;&quot;&gt;&lt;b&gt;User&lt;/b&gt;&lt;/p&gt;&lt;hr size=&quot;1&quot;/&gt;&lt;p style=&quot;margin:0 0 0 4px;line-height:1.6;&quot;&gt;- username: String&lt;br/&gt;- roleList: Set&amp;lt;Role&amp;gt;&lt;br/&gt;- serialVersionUID: long&lt;br/&gt;- userPassword: String&lt;/p&gt;&lt;hr size=&quot;1&quot;/&gt;&lt;p style=&quot;margin:0 0 0 4px;line-height:1.6;&quot;&gt;+ getUsername(): String&lt;br/&gt;+ getUserPassword(): String&lt;br/&gt;+ getRoleList(): Set&amp;lt;Role&amp;gt;&lt;br/&gt;+ setUserPassword(String): void&lt;br/&gt;+ getRolesAsStrings(): Set&amp;lt;String&amp;gt;&lt;br/&gt;+ verifyPassword(String): boolean&lt;br/&gt;+ setUsername(String): void&lt;br/&gt;+ addRole(Role): void&lt;/p&gt;" style="verticalAlign=top;align=left;overflow=fill;fontSize=14;fontFamily=Helvetica;html=1;rounded=0;shadow=0;comic=0;labelBackgroundColor=none;strokeWidth=1;" vertex="1" parent="RXwMs78SPBcH-9EFCCba-124">
          <mxGeometry x="138.5" y="432" width="265" height="362" as="geometry" />
        </mxCell>
        <mxCell id="RXwMs78SPBcH-9EFCCba-88" value="" style="html=1;rounded=1;edgeStyle=orthogonalEdgeStyle;dashed=0;startArrow=diamondThinstartSize=12;endArrow=openThin;endSize=12;strokeColor=#595959;exitX=0.500;exitY=1.000;exitDx=0;exitDy=0;entryX=0.500;entryY=0.000;entryDx=0;entryDy=0;" edge="1" parent="RXwMs78SPBcH-9EFCCba-124" source="RXwMs78SPBcH-9EFCCba-86" target="RXwMs78SPBcH-9EFCCba-87">
          <mxGeometry width="50" height="50" relative="1" as="geometry">
            <Array as="points">
              <mxPoint x="230.5" y="393" />
              <mxPoint x="270.5" y="393" />
            </Array>
          </mxGeometry>
        </mxCell>
        <mxCell id="RXwMs78SPBcH-9EFCCba-102" value="1" style="edgeLabel;html=1;align=center;verticalAlign=middle;resizable=0;points=[];" vertex="1" connectable="0" parent="RXwMs78SPBcH-9EFCCba-88">
          <mxGeometry x="0.1641" relative="1" as="geometry">
            <mxPoint as="offset" />
          </mxGeometry>
        </mxCell>
        <mxCell id="RXwMs78SPBcH-9EFCCba-92" value="" style="html=1;rounded=1;edgeStyle=orthogonalEdgeStyle;dashed=0;startArrow=diamondThinstartSize=12;endArrow=openThin;endSize=12;strokeColor=#595959;exitX=0.500;exitY=0.000;exitDx=0;exitDy=0;entryX=0.500;entryY=1.000;entryDx=0;entryDy=0;" edge="1" parent="RXwMs78SPBcH-9EFCCba-124" source="RXwMs78SPBcH-9EFCCba-87" target="RXwMs78SPBcH-9EFCCba-86">
          <mxGeometry width="50" height="50" relative="1" as="geometry">
            <Array as="points">
              <mxPoint x="270.5" y="373" />
              <mxPoint x="230.5" y="373" />
            </Array>
          </mxGeometry>
        </mxCell>
        <mxCell id="RXwMs78SPBcH-9EFCCba-99" value="* roleList" style="edgeLabel;html=1;align=center;verticalAlign=middle;resizable=0;points=[];" vertex="1" connectable="0" parent="RXwMs78SPBcH-9EFCCba-92">
          <mxGeometry x="0.6905" relative="1" as="geometry">
            <mxPoint as="offset" />
          </mxGeometry>
        </mxCell>
        <mxCell id="RXwMs78SPBcH-9EFCCba-100" value="* userList" style="edgeLabel;html=1;align=center;verticalAlign=middle;resizable=0;points=[];" vertex="1" connectable="0" parent="RXwMs78SPBcH-9EFCCba-92">
          <mxGeometry x="-0.79" y="1" relative="1" as="geometry">
            <mxPoint as="offset" />
          </mxGeometry>
        </mxCell>
        <mxCell id="RXwMs78SPBcH-9EFCCba-101" value="1" style="edgeLabel;html=1;align=center;verticalAlign=middle;resizable=0;points=[];" vertex="1" connectable="0" parent="RXwMs78SPBcH-9EFCCba-92">
          <mxGeometry x="0.079" relative="1" as="geometry">
            <mxPoint as="offset" />
          </mxGeometry>
        </mxCell>
        <mxCell id="RXwMs78SPBcH-9EFCCba-127" value="" style="group" vertex="1" connectable="0" parent="RXwMs78SPBcH-9EFCCba-20">
          <mxGeometry x="3088.5" y="1164" width="900" height="910" as="geometry" />
        </mxCell>
        <mxCell id="RXwMs78SPBcH-9EFCCba-128" value="" style="rounded=1;whiteSpace=wrap;html=1;" vertex="1" parent="RXwMs78SPBcH-9EFCCba-127">
          <mxGeometry width="900" height="910" as="geometry" />
        </mxCell>
        <mxCell id="RXwMs78SPBcH-9EFCCba-129" value="&lt;font style=&quot;font-size: 24px;&quot;&gt;security&lt;/font&gt;" style="text;html=1;align=center;verticalAlign=middle;whiteSpace=wrap;rounded=0;" vertex="1" parent="RXwMs78SPBcH-9EFCCba-127">
          <mxGeometry x="387.2093023255814" y="29.354838709677416" width="125.58139534883722" height="88.06451612903227" as="geometry" />
        </mxCell>
        <mxCell id="RXwMs78SPBcH-9EFCCba-55" value="&lt;p style=&quot;margin:0px;margin-top:4px;text-align:center;&quot;&gt;&lt;b&gt;SignVerifyToken&lt;/b&gt;&lt;/p&gt;&lt;hr size=&quot;1&quot;/&gt;&lt;p style=&quot;margin:0 0 0 4px;line-height:1.6;&quot;&gt;- ISSUER: String&lt;br/&gt;- TOKEN_EXPIRE_TIME: String&lt;br/&gt;- SECRET_KEY: String&lt;/p&gt;&lt;hr size=&quot;1&quot;/&gt;&lt;p style=&quot;margin:0 0 0 4px;line-height:1.6;&quot;&gt;+ getJWTClaimsSet(JWTClaimsSet): UserDTO&lt;br/&gt;- createClaims(String, String, Date): JWTClaimsSet&lt;br/&gt;+ parseTokenAndVerify(String): SignedJWT&lt;br/&gt;- createHeaderAndPayload(JWTClaimsSet): JWSObject&lt;br/&gt;+ signToken(String, String, Date): String&lt;br/&gt;- signTokenWithSecretKey(JWSObject): String&lt;/p&gt;" style="verticalAlign=top;align=left;overflow=fill;fontSize=14;fontFamily=Helvetica;html=1;rounded=0;shadow=0;comic=0;labelBackgroundColor=none;strokeWidth=1;" vertex="1" parent="RXwMs78SPBcH-9EFCCba-127">
          <mxGeometry x="371" y="130" width="398" height="281" as="geometry" />
        </mxCell>
        <mxCell id="RXwMs78SPBcH-9EFCCba-56" value="&lt;p style=&quot;margin:0px;margin-top:4px;text-align:center;&quot;&gt;&lt;b&gt;TokenFactory&lt;/b&gt;&lt;/p&gt;&lt;hr size=&quot;1&quot;/&gt;&lt;p style=&quot;margin:0 0 0 4px;line-height:1.6;&quot;&gt;- TOKEN_EXPIRE_TIME: String&lt;br/&gt;- SECRET_KEY: String&lt;br/&gt;- instance: TokenFactory&lt;br/&gt;- LOGGER: Logger&lt;br/&gt;- signature: SignVerifyToken&lt;br/&gt;- ISSUER: String&lt;/p&gt;&lt;hr size=&quot;1&quot;/&gt;&lt;p style=&quot;margin:0 0 0 4px;line-height:1.6;&quot;&gt;+ getInstance(): TokenFactory&lt;br/&gt;+ parseJsonObject(String, Boolean): String[]&lt;br/&gt;+ verifyToken(String): UserDTO&lt;br/&gt;- getProperties(): String[]?&lt;br/&gt;+ createToken(String, Set&amp;lt;String&amp;gt;): String&lt;/p&gt;" style="verticalAlign=top;align=left;overflow=fill;fontSize=14;fontFamily=Helvetica;html=1;rounded=0;shadow=0;comic=0;labelBackgroundColor=none;strokeWidth=1;" vertex="1" parent="RXwMs78SPBcH-9EFCCba-127">
          <mxGeometry x="385" y="523" width="330" height="335" as="geometry" />
        </mxCell>
        <mxCell id="RXwMs78SPBcH-9EFCCba-57" value="" style="html=1;rounded=1;edgeStyle=orthogonalEdgeStyle;dashed=1;startArrow=none;endArrow=openThin;endSize=12;strokeColor=#595959;exitX=0.250;exitY=0.000;exitDx=0;exitDy=0;entryX=0.250;entryY=1.000;entryDx=0;entryDy=0;" edge="1" parent="RXwMs78SPBcH-9EFCCba-127" source="RXwMs78SPBcH-9EFCCba-56" target="RXwMs78SPBcH-9EFCCba-55">
          <mxGeometry width="50" height="50" relative="1" as="geometry">
            <Array as="points">
              <mxPoint x="468" y="490" />
              <mxPoint x="471" y="490" />
            </Array>
          </mxGeometry>
        </mxCell>
        <mxCell id="RXwMs78SPBcH-9EFCCba-80" value="«create»" style="edgeLabel;html=1;align=center;verticalAlign=middle;resizable=0;points=[];" vertex="1" connectable="0" parent="RXwMs78SPBcH-9EFCCba-57">
          <mxGeometry x="-0.0759" y="1" relative="1" as="geometry">
            <mxPoint as="offset" />
          </mxGeometry>
        </mxCell>
        <mxCell id="RXwMs78SPBcH-9EFCCba-59" value="" style="html=1;rounded=1;edgeStyle=orthogonalEdgeStyle;dashed=0;startArrow=diamondThinstartSize=12;endArrow=openThin;endSize=12;strokeColor=#595959;exitX=0.750;exitY=0.000;exitDx=0;exitDy=0;entryX=0.750;entryY=1.000;entryDx=0;entryDy=0;" edge="1" parent="RXwMs78SPBcH-9EFCCba-127" source="RXwMs78SPBcH-9EFCCba-56" target="RXwMs78SPBcH-9EFCCba-55">
          <mxGeometry width="50" height="50" relative="1" as="geometry">
            <Array as="points">
              <mxPoint x="633" y="490" />
              <mxPoint x="670" y="490" />
            </Array>
          </mxGeometry>
        </mxCell>
        <mxCell id="RXwMs78SPBcH-9EFCCba-81" value="1 signature" style="edgeLabel;html=1;align=center;verticalAlign=middle;resizable=0;points=[];" vertex="1" connectable="0" parent="RXwMs78SPBcH-9EFCCba-59">
          <mxGeometry x="0.4703" y="1" relative="1" as="geometry">
            <mxPoint x="13" y="-17" as="offset" />
          </mxGeometry>
        </mxCell>
        <mxCell id="RXwMs78SPBcH-9EFCCba-82" value="1" style="edgeLabel;html=1;align=center;verticalAlign=middle;resizable=0;points=[];" vertex="1" connectable="0" parent="RXwMs78SPBcH-9EFCCba-59">
          <mxGeometry x="-0.8072" y="2" relative="1" as="geometry">
            <mxPoint as="offset" />
          </mxGeometry>
        </mxCell>
        <mxCell id="RXwMs78SPBcH-9EFCCba-54" value="&lt;p style=&quot;margin:0px;margin-top:4px;text-align:center;&quot;&gt;&lt;i&gt;&amp;lt;&amp;lt;enumeration&amp;gt;&amp;gt;&lt;/i&gt;&lt;br/&gt;&lt;b&gt;RouteRoles&lt;/b&gt;&lt;/p&gt;&lt;hr size=&quot;1&quot;/&gt;&lt;p style=&quot;margin:0 0 0 4px;line-height:1.6;&quot;&gt;+ USER: &lt;br/&gt;- role: String&lt;br/&gt;+ ANYONE: &lt;br/&gt;+ ADMIN: &lt;br/&gt;+ MANAGER: &lt;/p&gt;&lt;hr size=&quot;1&quot;/&gt;&lt;p style=&quot;margin:0 0 0 4px;line-height:1.6;&quot;&gt;+ toString(): String&lt;br/&gt;+ values(): RouteRoles[]&lt;br/&gt;+ valueOf(String): RouteRoles&lt;/p&gt;" style="verticalAlign=top;align=left;overflow=fill;fontSize=14;fontFamily=Helvetica;html=1;rounded=0;shadow=0;comic=0;labelBackgroundColor=none;strokeWidth=1;" vertex="1" parent="RXwMs78SPBcH-9EFCCba-127">
          <mxGeometry x="131" y="443" width="232" height="254" as="geometry" />
        </mxCell>
      </root>
    </mxGraphModel>
  </diagram>
</mxfile>
